<svg width="24" height="25" viewBox="0 0 24 25" fill="none" xmlns="http://www.w3.org/2000/svg">
<path d="M12 15.9165C13.6569 15.9165 15 14.5734 15 12.9165C15 11.2596 13.6569 9.9165 12 9.9165C10.3431 9.9165 9 11.2596 9 12.9165C9 14.5734 10.3431 15.9165 12 15.9165Z" stroke="#667085" stroke-width="2" stroke-linecap="round" stroke-linejoin="round"/>
<path d="M18.7273 15.6438C18.6063 15.918 18.5702 16.2221 18.6236 16.517C18.6771 16.8119 18.8177 17.0841 19.0273 17.2983L19.0818 17.3529C19.2509 17.5217 19.385 17.7223 19.4765 17.943C19.568 18.1637 19.6151 18.4003 19.6151 18.6392C19.6151 18.8782 19.568 19.1148 19.4765 19.3355C19.385 19.5562 19.2509 19.7567 19.0818 19.9256C18.913 20.0946 18.7124 20.2288 18.4917 20.3202C18.271 20.4117 18.0344 20.4588 17.7955 20.4588C17.5565 20.4588 17.3199 20.4117 17.0992 20.3202C16.8785 20.2288 16.678 20.0946 16.5091 19.9256L16.4545 19.871C16.2403 19.6615 15.9682 19.5209 15.6733 19.4674C15.3784 19.4139 15.0742 19.45 14.8 19.571C14.5311 19.6863 14.3018 19.8776 14.1403 20.1215C13.9788 20.3654 13.8921 20.6512 13.8909 20.9438V21.0983C13.8909 21.5805 13.6994 22.043 13.3584 22.384C13.0174 22.7249 12.5549 22.9165 12.0727 22.9165C11.5905 22.9165 11.1281 22.7249 10.7871 22.384C10.4461 22.043 10.2545 21.5805 10.2545 21.0983V21.0165C10.2475 20.7156 10.1501 20.4238 9.97501 20.179C9.79991 19.9341 9.55521 19.7477 9.27273 19.6438C8.99853 19.5228 8.69437 19.4867 8.39947 19.5401C8.10456 19.5936 7.83244 19.7342 7.61818 19.9438L7.56364 19.9983C7.39478 20.1674 7.19425 20.3015 6.97353 20.393C6.7528 20.4845 6.51621 20.5316 6.27727 20.5316C6.03834 20.5316 5.80174 20.4845 5.58102 20.393C5.36029 20.3015 5.15977 20.1674 4.99091 19.9983C4.82186 19.8295 4.68775 19.6289 4.59626 19.4082C4.50476 19.1875 4.45766 18.9509 4.45766 18.712C4.45766 18.473 4.50476 18.2364 4.59626 18.0157C4.68775 17.795 4.82186 17.5945 4.99091 17.4256L5.04545 17.371C5.25503 17.1568 5.39562 16.8847 5.4491 16.5898C5.50257 16.2949 5.46647 15.9907 5.34545 15.7165C5.23022 15.4476 5.03887 15.2183 4.79497 15.0568C4.55107 14.8953 4.26526 14.8086 3.97273 14.8074H3.81818C3.33597 14.8074 2.87351 14.6159 2.53253 14.2749C2.19156 13.9339 2 13.4714 2 12.9892C2 12.507 2.19156 12.0446 2.53253 11.7036C2.87351 11.3626 3.33597 11.171 3.81818 11.171H3.9C4.2009 11.164 4.49273 11.0666 4.73754 10.8915C4.98236 10.7164 5.16883 10.4717 5.27273 10.1892C5.39374 9.91503 5.42984 9.61087 5.37637 9.31597C5.3229 9.02106 5.18231 8.74894 4.97273 8.53469L4.91818 8.48014C4.74913 8.31128 4.61503 8.11076 4.52353 7.89003C4.43203 7.66931 4.38493 7.43271 4.38493 7.19378C4.38493 6.95484 4.43203 6.71825 4.52353 6.49752C4.61503 6.2768 4.74913 6.07627 4.91818 5.90741C5.08704 5.73836 5.28757 5.60426 5.50829 5.51276C5.72901 5.42126 5.96561 5.37416 6.20455 5.37416C6.44348 5.37416 6.68008 5.42126 6.9008 5.51276C7.12152 5.60426 7.32205 5.73836 7.49091 5.90741L7.54545 5.96196C7.75971 6.17154 8.03183 6.31213 8.32674 6.3656C8.62164 6.41907 8.9258 6.38297 9.2 6.26196H9.27273C9.54161 6.14672 9.77093 5.95537 9.93245 5.71147C10.094 5.46757 10.1807 5.18176 10.1818 4.88923V4.73469C10.1818 4.25247 10.3734 3.79001 10.7144 3.44904C11.0553 3.10806 11.5178 2.9165 12 2.9165C12.4822 2.9165 12.9447 3.10806 13.2856 3.44904C13.6266 3.79001 13.8182 4.25247 13.8182 4.73469V4.8165C13.8193 5.10904 13.906 5.39485 14.0676 5.63875C14.2291 5.88265 14.4584 6.07399 14.7273 6.18923C15.0015 6.31024 15.3056 6.34634 15.6005 6.29287C15.8954 6.2394 16.1676 6.09881 16.3818 5.88923L16.4364 5.83469C16.6052 5.66564 16.8057 5.53153 17.0265 5.44003C17.2472 5.34853 17.4838 5.30144 17.7227 5.30144C17.9617 5.30144 18.1983 5.34853 18.419 5.44003C18.6397 5.53153 18.8402 5.66564 19.0091 5.83469C19.1781 6.00355 19.3122 6.20407 19.4037 6.42479C19.4952 6.64552 19.5423 6.88211 19.5423 7.12105C19.5423 7.35999 19.4952 7.59658 19.4037 7.8173C19.3122 8.03803 19.1781 8.23855 19.0091 8.40741L18.9545 8.46196C18.745 8.67621 18.6044 8.94834 18.5509 9.24324C18.4974 9.53815 18.5335 9.84231 18.6545 10.1165V10.1892C18.7698 10.4581 18.9611 10.6874 19.205 10.849C19.4489 11.0105 19.7347 11.0972 20.0273 11.0983H20.1818C20.664 11.0983 21.1265 11.2899 21.4675 11.6309C21.8084 11.9718 22 12.4343 22 12.9165C22 13.3987 21.8084 13.8612 21.4675 14.2022C21.1265 14.5431 20.664 14.7347 20.1818 14.7347H20.1C19.8075 14.7359 19.5217 14.8225 19.2778 14.9841C19.0339 15.1456 18.8425 15.3749 18.7273 15.6438Z" stroke="#667085" stroke-width="2" stroke-linecap="round" stroke-linejoin="round"/>
</svg>
