<svg width="22" height="23" viewBox="0 0 22 23" fill="none" xmlns="http://www.w3.org/2000/svg">
<path d="M8.13626 9.05279L3.92893 4.84546M3.92893 18.9876L8.16797 14.7486M13.8611 14.7803L18.0684 18.9876M18.0684 4.84546L13.8287 9.08512M21 11.9165C21 17.4394 16.5228 21.9165 11 21.9165C5.47715 21.9165 1 17.4394 1 11.9165C1 6.39366 5.47715 1.9165 11 1.9165C16.5228 1.9165 21 6.39366 21 11.9165ZM15 11.9165C15 14.1256 13.2091 15.9165 11 15.9165C8.79086 15.9165 7 14.1256 7 11.9165C7 9.70736 8.79086 7.9165 11 7.9165C13.2091 7.9165 15 9.70736 15 11.9165Z" stroke="#667085" stroke-width="2" stroke-linecap="round" stroke-linejoin="round"/>
</svg>
